<mxfile host="Electron" modified="2024-03-20T16:27:22.413Z" agent="Mozilla/5.0 (Windows NT 10.0; Win64; x64) AppleWebKit/537.36 (KHTML, like Gecko) draw.io/23.1.5 Chrome/120.0.6099.109 Electron/28.1.0 Safari/537.36" etag="zLgWXJtkJgjTI1e1YVBr" version="23.1.5" type="device">
  <diagram name="Pagina-1" id="X9m-35pAYE2k5PsHio-0">
    <mxGraphModel dx="827" dy="523" grid="1" gridSize="10" guides="1" tooltips="1" connect="1" arrows="1" fold="1" page="1" pageScale="1" pageWidth="827" pageHeight="1169" math="0" shadow="0">
      <root>
        <mxCell id="0" />
        <mxCell id="1" parent="0" />
        <mxCell id="rgF0iMXh-20BMOgKx66S-11" style="edgeStyle=orthogonalEdgeStyle;rounded=0;orthogonalLoop=1;jettySize=auto;html=1;entryX=0;entryY=0.5;entryDx=0;entryDy=0;" edge="1" parent="1" source="rgF0iMXh-20BMOgKx66S-2" target="rgF0iMXh-20BMOgKx66S-4">
          <mxGeometry relative="1" as="geometry">
            <Array as="points">
              <mxPoint x="110" y="372.5" />
            </Array>
          </mxGeometry>
        </mxCell>
        <mxCell id="rgF0iMXh-20BMOgKx66S-12" style="edgeStyle=orthogonalEdgeStyle;rounded=0;orthogonalLoop=1;jettySize=auto;html=1;entryX=0;entryY=0.5;entryDx=0;entryDy=0;" edge="1" parent="1" source="rgF0iMXh-20BMOgKx66S-2" target="rgF0iMXh-20BMOgKx66S-5">
          <mxGeometry relative="1" as="geometry" />
        </mxCell>
        <mxCell id="rgF0iMXh-20BMOgKx66S-13" style="edgeStyle=orthogonalEdgeStyle;rounded=0;orthogonalLoop=1;jettySize=auto;html=1;entryX=0;entryY=0.5;entryDx=0;entryDy=0;" edge="1" parent="1" source="rgF0iMXh-20BMOgKx66S-2" target="rgF0iMXh-20BMOgKx66S-6">
          <mxGeometry relative="1" as="geometry" />
        </mxCell>
        <mxCell id="rgF0iMXh-20BMOgKx66S-44" style="edgeStyle=orthogonalEdgeStyle;rounded=0;orthogonalLoop=1;jettySize=auto;html=1;entryX=0;entryY=0.5;entryDx=0;entryDy=0;endArrow=doubleBlock;endFill=1;" edge="1" parent="1" source="rgF0iMXh-20BMOgKx66S-2" target="rgF0iMXh-20BMOgKx66S-37">
          <mxGeometry relative="1" as="geometry" />
        </mxCell>
        <mxCell id="rgF0iMXh-20BMOgKx66S-2" value="UTENTE" style="rounded=0;whiteSpace=wrap;html=1;fillColor=#e3c800;fontColor=#000000;strokeColor=#B09500;" vertex="1" parent="1">
          <mxGeometry x="50" y="282.5" width="120" height="60" as="geometry" />
        </mxCell>
        <mxCell id="rgF0iMXh-20BMOgKx66S-4" value="" style="ellipse;whiteSpace=wrap;html=1;aspect=fixed;" vertex="1" parent="1">
          <mxGeometry x="145" y="362.5" width="20" height="20" as="geometry" />
        </mxCell>
        <mxCell id="rgF0iMXh-20BMOgKx66S-5" value="" style="ellipse;whiteSpace=wrap;html=1;aspect=fixed;" vertex="1" parent="1">
          <mxGeometry x="145" y="392.5" width="20" height="20" as="geometry" />
        </mxCell>
        <mxCell id="rgF0iMXh-20BMOgKx66S-6" value="" style="ellipse;whiteSpace=wrap;html=1;aspect=fixed;fillColor=#6d8764;fontColor=#ffffff;strokeColor=#3A5431;" vertex="1" parent="1">
          <mxGeometry x="145" y="422.5" width="20" height="20" as="geometry" />
        </mxCell>
        <mxCell id="rgF0iMXh-20BMOgKx66S-7" value="Nome" style="text;html=1;align=center;verticalAlign=middle;resizable=0;points=[];autosize=1;strokeColor=none;fillColor=none;" vertex="1" parent="1">
          <mxGeometry x="155" y="360.5" width="60" height="30" as="geometry" />
        </mxCell>
        <mxCell id="rgF0iMXh-20BMOgKx66S-8" value="Cognome" style="text;html=1;align=center;verticalAlign=middle;resizable=0;points=[];autosize=1;strokeColor=none;fillColor=none;" vertex="1" parent="1">
          <mxGeometry x="155" y="390.5" width="80" height="30" as="geometry" />
        </mxCell>
        <mxCell id="rgF0iMXh-20BMOgKx66S-9" value="Email" style="text;html=1;align=left;verticalAlign=middle;resizable=0;points=[];autosize=1;strokeColor=none;fillColor=none;" vertex="1" parent="1">
          <mxGeometry x="170" y="417.5" width="50" height="30" as="geometry" />
        </mxCell>
        <mxCell id="rgF0iMXh-20BMOgKx66S-15" style="edgeStyle=orthogonalEdgeStyle;rounded=0;orthogonalLoop=1;jettySize=auto;html=1;entryX=0;entryY=0.5;entryDx=0;entryDy=0;" edge="1" source="rgF0iMXh-20BMOgKx66S-18" target="rgF0iMXh-20BMOgKx66S-19" parent="1">
          <mxGeometry relative="1" as="geometry">
            <Array as="points">
              <mxPoint x="760" y="367.5" />
            </Array>
          </mxGeometry>
        </mxCell>
        <mxCell id="rgF0iMXh-20BMOgKx66S-16" style="edgeStyle=orthogonalEdgeStyle;rounded=0;orthogonalLoop=1;jettySize=auto;html=1;entryX=0;entryY=0.5;entryDx=0;entryDy=0;" edge="1" source="rgF0iMXh-20BMOgKx66S-18" target="rgF0iMXh-20BMOgKx66S-20" parent="1">
          <mxGeometry relative="1" as="geometry" />
        </mxCell>
        <mxCell id="rgF0iMXh-20BMOgKx66S-17" style="edgeStyle=orthogonalEdgeStyle;rounded=0;orthogonalLoop=1;jettySize=auto;html=1;entryX=0;entryY=0.5;entryDx=0;entryDy=0;" edge="1" source="rgF0iMXh-20BMOgKx66S-18" target="rgF0iMXh-20BMOgKx66S-21" parent="1">
          <mxGeometry relative="1" as="geometry" />
        </mxCell>
        <mxCell id="rgF0iMXh-20BMOgKx66S-48" style="edgeStyle=orthogonalEdgeStyle;rounded=0;orthogonalLoop=1;jettySize=auto;html=1;entryX=1;entryY=0.5;entryDx=0;entryDy=0;" edge="1" parent="1" source="rgF0iMXh-20BMOgKx66S-18" target="rgF0iMXh-20BMOgKx66S-37">
          <mxGeometry relative="1" as="geometry" />
        </mxCell>
        <mxCell id="rgF0iMXh-20BMOgKx66S-18" value="LIBRO" style="rounded=0;whiteSpace=wrap;html=1;fillColor=#d5e8d4;gradientColor=#97d077;strokeColor=#82b366;" vertex="1" parent="1">
          <mxGeometry x="700" y="277.5" width="120" height="60" as="geometry" />
        </mxCell>
        <mxCell id="rgF0iMXh-20BMOgKx66S-19" value="" style="ellipse;whiteSpace=wrap;html=1;aspect=fixed;" vertex="1" parent="1">
          <mxGeometry x="795" y="357.5" width="20" height="20" as="geometry" />
        </mxCell>
        <mxCell id="rgF0iMXh-20BMOgKx66S-20" value="" style="ellipse;whiteSpace=wrap;html=1;aspect=fixed;" vertex="1" parent="1">
          <mxGeometry x="795" y="387.5" width="20" height="20" as="geometry" />
        </mxCell>
        <mxCell id="rgF0iMXh-20BMOgKx66S-21" value="" style="ellipse;whiteSpace=wrap;html=1;aspect=fixed;" vertex="1" parent="1">
          <mxGeometry x="795" y="417.5" width="20" height="20" as="geometry" />
        </mxCell>
        <mxCell id="rgF0iMXh-20BMOgKx66S-22" value="Titolo" style="text;html=1;align=center;verticalAlign=middle;resizable=0;points=[];autosize=1;strokeColor=none;fillColor=none;" vertex="1" parent="1">
          <mxGeometry x="810" y="355.5" width="50" height="30" as="geometry" />
        </mxCell>
        <mxCell id="rgF0iMXh-20BMOgKx66S-23" value="Anno" style="text;html=1;align=left;verticalAlign=middle;resizable=0;points=[];autosize=1;strokeColor=none;fillColor=none;" vertex="1" parent="1">
          <mxGeometry x="820" y="385.5" width="50" height="30" as="geometry" />
        </mxCell>
        <mxCell id="rgF0iMXh-20BMOgKx66S-24" value="Disponibile" style="text;html=1;align=left;verticalAlign=middle;resizable=0;points=[];autosize=1;strokeColor=none;fillColor=none;" vertex="1" parent="1">
          <mxGeometry x="820" y="412.5" width="80" height="30" as="geometry" />
        </mxCell>
        <mxCell id="rgF0iMXh-20BMOgKx66S-29" value="" style="ellipse;whiteSpace=wrap;html=1;aspect=fixed;" vertex="1" parent="1">
          <mxGeometry x="455" y="380" width="20" height="20" as="geometry" />
        </mxCell>
        <mxCell id="rgF0iMXh-20BMOgKx66S-30" value="" style="ellipse;whiteSpace=wrap;html=1;aspect=fixed;" vertex="1" parent="1">
          <mxGeometry x="455" y="410" width="20" height="20" as="geometry" />
        </mxCell>
        <mxCell id="rgF0iMXh-20BMOgKx66S-32" value="DataPrestito" style="text;html=1;align=center;verticalAlign=middle;resizable=0;points=[];autosize=1;strokeColor=none;fillColor=none;" vertex="1" parent="1">
          <mxGeometry x="465" y="378" width="90" height="30" as="geometry" />
        </mxCell>
        <mxCell id="rgF0iMXh-20BMOgKx66S-41" style="edgeStyle=orthogonalEdgeStyle;rounded=0;orthogonalLoop=1;jettySize=auto;html=1;entryX=0;entryY=0.5;entryDx=0;entryDy=0;" edge="1" parent="1" source="rgF0iMXh-20BMOgKx66S-37" target="rgF0iMXh-20BMOgKx66S-29">
          <mxGeometry relative="1" as="geometry" />
        </mxCell>
        <mxCell id="rgF0iMXh-20BMOgKx66S-42" style="edgeStyle=orthogonalEdgeStyle;rounded=0;orthogonalLoop=1;jettySize=auto;html=1;entryX=0;entryY=0.5;entryDx=0;entryDy=0;" edge="1" parent="1" source="rgF0iMXh-20BMOgKx66S-37" target="rgF0iMXh-20BMOgKx66S-30">
          <mxGeometry relative="1" as="geometry" />
        </mxCell>
        <mxCell id="rgF0iMXh-20BMOgKx66S-37" value="&lt;span style=&quot;white-space: pre;&quot;&gt;&#x9;&lt;/span&gt;PRESTITO" style="rhombus;whiteSpace=wrap;html=1;align=left;fillColor=#f5f5f5;gradientColor=#b3b3b3;strokeColor=#666666;" vertex="1" parent="1">
          <mxGeometry x="380" y="265" width="105" height="95" as="geometry" />
        </mxCell>
        <mxCell id="rgF0iMXh-20BMOgKx66S-39" value="DataRitorno" style="text;html=1;align=center;verticalAlign=middle;resizable=0;points=[];autosize=1;strokeColor=none;fillColor=none;" vertex="1" parent="1">
          <mxGeometry x="465" y="405" width="90" height="30" as="geometry" />
        </mxCell>
        <mxCell id="rgF0iMXh-20BMOgKx66S-49" value="" style="endArrow=none;html=1;rounded=0;" edge="1" parent="1">
          <mxGeometry width="50" height="50" relative="1" as="geometry">
            <mxPoint x="194.5" y="342.5" as="sourcePoint" />
            <mxPoint x="194.5" y="277.5" as="targetPoint" />
          </mxGeometry>
        </mxCell>
      </root>
    </mxGraphModel>
  </diagram>
</mxfile>
